REM DIRINDEX 1\2,1\3,1\4,1\5,1\6,1\7,1\8
REM DIRNAME cjc150,folder01,folder02,folder03,folder04,folder05,folder06,folder07
TITLE ""
FILE "008 でる文78.mp3" MP3
  TRACK 01 AUDIO
    TITLE "0:"
    INDEX 01 00:00:00
  TRACK 02 AUDIO
    TITLE "8:cjc150_3745"
    INDEX 01 00:00:01
  TRACK 03 AUDIO
    TITLE "0:"
    INDEX 01 00:01:66
  TRACK 04 AUDIO
    TITLE "2:cjc150_3746"
    INDEX 01 00:02:55
  TRACK 05 AUDIO
    TITLE "0:"
    INDEX 01 00:10:00
  TRACK 06 AUDIO
    TITLE "8:cjc150_3747"
    INDEX 01 00:11:31
  TRACK 07 AUDIO
    TITLE "0:"
    INDEX 01 00:14:09
  TRACK 08 AUDIO
    TITLE "3:cjc150_3748"
    INDEX 01 00:15:01
  TRACK 09 AUDIO
    TITLE "3:cjc150_3749"
    INDEX 01 00:16:71
  TRACK 10 AUDIO
    TITLE "3:cjc150_3750"
    INDEX 01 00:18:66
  TRACK 11 AUDIO
    TITLE "3:cjc150_3751"
    INDEX 01 00:20:49
  TRACK 12 AUDIO
    TITLE "3:cjc150_3752"
    INDEX 01 00:22:27
  TRACK 13 AUDIO
    TITLE "3:cjc150_3753"
    INDEX 01 00:23:65
  TRACK 14 AUDIO
    TITLE "3:cjc150_3754"
    INDEX 01 00:25:25
  TRACK 15 AUDIO
    TITLE "3:cjc150_3755"
    INDEX 01 00:27:30
  TRACK 16 AUDIO
    TITLE "3:cjc150_3756"
    INDEX 01 00:29:33
  TRACK 17 AUDIO
    TITLE "3:cjc150_3757"
    INDEX 01 00:31:39
  TRACK 18 AUDIO
    TITLE "8:cjc150_3758"
    INDEX 01 00:33:48
  TRACK 19 AUDIO
    TITLE "0:"
    INDEX 01 00:36:25
  TRACK 20 AUDIO
    TITLE "4:cjc150_3759"
    INDEX 01 00:37:14
  TRACK 21 AUDIO
    TITLE "4:cjc150_3760"
    INDEX 01 00:40:21
  TRACK 22 AUDIO
    TITLE "4:cjc150_3761"
    INDEX 01 00:43:70
  TRACK 23 AUDIO
    TITLE "4:cjc150_3762"
    INDEX 01 00:46:64
  TRACK 24 AUDIO
    TITLE "4:cjc150_3763"
    INDEX 01 00:50:23
  TRACK 25 AUDIO
    TITLE "4:cjc150_3764"
    INDEX 01 00:52:36
  TRACK 26 AUDIO
    TITLE "8:cjc150_3765"
    INDEX 01 00:55:18
  TRACK 27 AUDIO
    TITLE "0:"
    INDEX 01 00:58:11
  TRACK 28 AUDIO
    TITLE "5:cjc150_3766"
    INDEX 01 00:58:71
  TRACK 29 AUDIO
    TITLE "5:cjc150_3767"
    INDEX 01 01:01:56
  TRACK 30 AUDIO
    TITLE "5:cjc150_3768"
    INDEX 01 01:04:37
  TRACK 31 AUDIO
    TITLE "5:cjc150_3769"
    INDEX 01 01:06:36
  TRACK 32 AUDIO
    TITLE "5:cjc150_3770"
    INDEX 01 01:08:19
  TRACK 33 AUDIO
    TITLE "5:cjc150_3771"
    INDEX 01 01:10:14
  TRACK 34 AUDIO
    TITLE "5:cjc150_3772"
    INDEX 01 01:12:60
  TRACK 35 AUDIO
    TITLE "5:cjc150_3773"
    INDEX 01 01:14:47
  TRACK 36 AUDIO
    TITLE "5:cjc150_3774"
    INDEX 01 01:16:28
  TRACK 37 AUDIO
    TITLE "5:cjc150_3775"
    INDEX 01 01:18:17
  TRACK 38 AUDIO
    TITLE "5:cjc150_3776"
    INDEX 01 01:20:44
  TRACK 39 AUDIO
    TITLE "5:cjc150_3777"
    INDEX 01 01:22:07
  TRACK 40 AUDIO
    TITLE "5:cjc150_3778"
    INDEX 01 01:23:38
  TRACK 41 AUDIO
    TITLE "5:cjc150_3779"
    INDEX 01 01:25:43
  TRACK 42 AUDIO
    TITLE "5:cjc150_3780"
    INDEX 01 01:28:27
  TRACK 43 AUDIO
    TITLE "5:cjc150_3781"
    INDEX 01 01:30:32
  TRACK 44 AUDIO
    TITLE "5:cjc150_3782"
    INDEX 01 01:32:29
  TRACK 45 AUDIO
    TITLE "5:cjc150_3783"
    INDEX 01 01:34:54
  TRACK 46 AUDIO
    TITLE "5:cjc150_3784"
    INDEX 01 01:37:42
  TRACK 47 AUDIO
    TITLE "5:cjc150_3785"
    INDEX 01 01:39:49
  TRACK 48 AUDIO
    TITLE "8:cjc150_3786"
    INDEX 01 01:41:48
  TRACK 49 AUDIO
    TITLE "0:"
    INDEX 01 01:44:30
  TRACK 50 AUDIO
    TITLE "6:cjc150_3787"
    INDEX 01 01:45:10
  TRACK 51 AUDIO
    TITLE "6:cjc150_3788"
    INDEX 01 01:49:30
  TRACK 52 AUDIO
    TITLE "6:cjc150_3789"
    INDEX 01 01:53:29
  TRACK 53 AUDIO
    TITLE "6:cjc150_3790"
    INDEX 01 01:56:37
  TRACK 54 AUDIO
    TITLE "6:cjc150_3791"
    INDEX 01 01:59:46
  TRACK 55 AUDIO
    TITLE "6:cjc150_3792"
    INDEX 01 02:02:62
  TRACK 56 AUDIO
    TITLE "6:cjc150_3793"
    INDEX 01 02:06:42
  TRACK 57 AUDIO
    TITLE "6:cjc150_3794"
    INDEX 01 02:09:32
  TRACK 58 AUDIO
    TITLE "6:cjc150_3795"
    INDEX 01 02:12:25
  TRACK 59 AUDIO
    TITLE "6:cjc150_3796"
    INDEX 01 02:14:43
  TRACK 60 AUDIO
    TITLE "6:cjc150_3797"
    INDEX 01 02:17:45
  TRACK 61 AUDIO
    TITLE "6:cjc150_3798"
    INDEX 01 02:19:56
  TRACK 62 AUDIO
    TITLE "8:cjc150_3799"
    INDEX 01 02:21:22
  TRACK 63 AUDIO
    TITLE "0:"
    INDEX 01 02:23:01
  TRACK 64 AUDIO
    TITLE "7:cjc150_3800"
    INDEX 01 02:23:60
  TRACK 65 AUDIO
    TITLE "7:cjc150_3801"
    INDEX 01 02:31:04
  TRACK 66 AUDIO
    TITLE "0:"
    INDEX 01 02:38:12
